<svg xmlns="http://www.w3.org/2000/svg" viewBox="0 0 1024 1024"><path d="M512 0c281.6 0 512 230.4 512 512s-230.4 512-512 512S0 793.6 0 512 230.4 0 512 0z" fill="#2C425B"/><path d="M512 1024c-79.36 0-153.6-17.92-220.16-51.2-5.12-23.04-7.68-48.64-10.24-76.8-2.56-76.8 66.56-153.6 76.8-230.4 15.36-122.88-25.6-230.4-25.6-230.4l460.8-128c10.24 81.92 17.92 207.36 25.6 332.8 5.12 92.16 61.44 140.8 97.28 184.32C824.32 944.64 678.4 1024 512 1024z" fill="#AD503C"/><path d="M512 1024c-117.76 0-227.84-40.96-314.88-107.52 66.56-33.28 148.48-58.88 238.08-66.56V793.6h153.6v56.32c89.6 7.68 171.52 33.28 238.08 66.56C739.84 983.04 629.76 1024 512 1024z" fill="#EF8049"/><path d="M435.2 537.6h153.6v281.6h-153.6V537.6z" fill="#FFDEC9"/><path d="M588.8 680.96c-30.72 38.4-81.92 64-128 61.44-10.24 0-17.92 0-25.6-2.56V512c51.2 5.12 117.76 20.48 153.6 51.2v117.76z" fill="#EDB795"/><path d="M665.6 578.56C627.2 640 570.88 691.2 486.4 691.2c-222.72 0-204.8-332.8-204.8-332.8 0-115.2 115.2-204.8 230.4-204.8s230.4 94.72 230.4 209.92c0 0-2.56 20.48-10.24 53.76-10.24 66.56-66.56 161.28-66.56 161.28z" fill="#FFDEC9"/><path d="M675.84 537.6c0 46.08-38.4 81.92-84.48 81.92h-23.04c-2.56-5.12-10.24-10.24-15.36-10.24h-12.8c-10.24 0-20.48 7.68-20.48 20.48 0 10.24 7.68 20.48 20.48 20.48h12.8c5.12 0 12.8-2.56 15.36-7.68h23.04c56.32 0 104.96-46.08 104.96-102.4h-20.48z" fill="#2C425B"/><path d="M668.16 560.64c-17.92-7.68 15.36-156.16 23.04-163.84 0 0 40.96-51.2 46.08 28.16 7.68 76.8-51.2 143.36-69.12 135.68z" fill="#FFDEC9"/><path d="M537.6 307.2c-25.6 30.72-94.72 76.8-128 76.8v-76.8s-56.32 48.64-102.4 76.8c-2.56 87.04 0 153.6 0 153.6s-74.24-115.2-51.2-230.4c23.04-115.2 117.76-235.52 230.4-204.8 112.64 30.72 230.4-53.76 281.6 153.6 17.92 135.68-64 217.6-102.4 248.32 0 0 2.56-168.96-128-197.12z" fill="#AD503C"/><path d="M819.2 281.6c-66.56 130.56-58.88-46.08-186.88-104.96C512 125.44 460.8 153.6 460.8 153.6s-56.32-25.6 0-76.8c25.6-23.04 120.32-10.24 204.8 25.6 0-12.8 10.24-25.6 25.6-25.6s25.6 10.24 25.6 25.6c0 7.68-2.56 15.36-10.24 17.92 81.92 43.52 143.36 102.4 112.64 161.28z" fill="#EF8049"/></svg>
